<svg width="322" height="332" viewBox="0 0 322 332" fill="none" xmlns="http://www.w3.org/2000/svg">
    <g filter="url(#filter0_d)">
        <mask id="path-1-outside-1" maskUnits="userSpaceOnUse" x="2.63135" y="0.918427" width="318" height="326" fill="black">
            <rect fill="white" x="2.63135" y="0.918427" width="318" height="326"/>
            <path fill-rule="evenodd" clip-rule="evenodd" d="M192.73 23.7511C192.73 32.5318 185.539 40.1018 175.17 43.5681V55.3566C255.423 62.0771 312.111 137.122 317.415 204.676C328.373 344.232 274.991 331.298 217.104 317.271C199.062 312.9 180.582 308.422 163.476 308.422C146.525 308.422 127.94 312.815 109.628 317.144C50.1683 331.2 -6.41654 344.576 5.14495 204.676C10.7073 137.369 69.709 63.8325 148.832 55.6258V43.2611C138.939 39.6684 132.153 32.281 132.153 23.7511C132.153 11.6932 145.713 1.91843 162.441 1.91843C179.169 1.91843 192.73 11.6932 192.73 23.7511Z"/>
        </mask>
        <path fill-rule="evenodd" clip-rule="evenodd" d="M192.73 23.7511C192.73 32.5318 185.539 40.1018 175.17 43.5681V55.3566C255.423 62.0771 312.111 137.122 317.415 204.676C328.373 344.232 274.991 331.298 217.104 317.271C199.062 312.9 180.582 308.422 163.476 308.422C146.525 308.422 127.94 312.815 109.628 317.144C50.1683 331.2 -6.41654 344.576 5.14495 204.676C10.7073 137.369 69.709 63.8325 148.832 55.6258V43.2611C138.939 39.6684 132.153 32.281 132.153 23.7511C132.153 11.6932 145.713 1.91843 162.441 1.91843C179.169 1.91843 192.73 11.6932 192.73 23.7511Z" fill="#DDDDDD"/>
        <path d="M175.17 43.5681L174.853 42.6196L174.17 42.848V43.5681H175.17ZM175.17 55.3566H174.17V56.2763L175.086 56.3531L175.17 55.3566ZM317.415 204.676L316.418 204.754L316.418 204.754L317.415 204.676ZM217.104 317.271L216.869 318.243L216.869 318.243L217.104 317.271ZM109.628 317.144L109.858 318.117L109.628 317.144ZM5.14495 204.676L6.14155 204.758L5.14495 204.676ZM148.832 55.6258L148.935 56.6204L149.832 56.5274V55.6258H148.832ZM148.832 43.2611H149.832V42.5603L149.173 42.3211L148.832 43.2611ZM175.487 44.5165C186.078 40.9759 193.73 33.1296 193.73 23.7511H191.73C191.73 31.934 184.999 39.2278 174.853 42.6196L175.487 44.5165ZM176.17 55.3566V43.5681H174.17V55.3566H176.17ZM175.086 56.3531C254.754 63.0246 311.144 137.585 316.418 204.754L318.412 204.598C313.077 136.658 256.091 61.1296 175.253 54.3601L175.086 56.3531ZM316.418 204.754C319.154 239.596 317.865 264.836 313.532 282.883C309.203 300.916 301.857 311.682 292.532 317.728C283.19 323.786 271.689 325.22 258.817 324.224C245.939 323.226 231.832 319.811 217.34 316.299L216.869 318.243C231.32 321.745 245.593 325.206 258.663 326.218C271.738 327.23 283.751 325.805 293.62 319.406C303.508 312.995 311.07 301.703 315.477 283.35C319.88 265.011 321.155 239.533 318.412 204.598L316.418 204.754ZM217.34 316.299C199.326 311.935 180.725 307.422 163.476 307.422V309.422C180.44 309.422 198.798 313.864 216.869 318.243L217.34 316.299ZM163.476 307.422C146.386 307.422 127.681 311.849 109.398 316.171L109.858 318.117C128.2 313.781 146.665 309.422 163.476 309.422V307.422ZM109.398 316.171C94.5137 319.689 79.9082 323.14 66.5148 324.177C53.1245 325.214 41.0858 323.826 31.2775 317.792C21.4943 311.773 13.7653 301.028 9.20081 283C4.63152 264.954 3.2553 239.683 6.14155 204.758L4.14835 204.593C1.25386 239.618 2.61518 265.138 7.26198 283.491C11.9136 301.863 19.8792 313.127 30.2295 319.495C40.5546 325.847 53.0882 327.223 66.6692 326.171C80.2472 325.119 95.0121 321.627 109.858 318.117L109.398 316.171ZM6.14155 204.758C11.6696 137.866 70.3519 64.7711 148.935 56.6204L148.729 54.6311C69.0662 62.8938 9.74501 136.871 4.14835 204.593L6.14155 204.758ZM147.832 43.2611V55.6258H149.832V43.2611H147.832ZM131.153 23.7511C131.153 32.8611 138.377 40.5281 148.491 44.201L149.173 42.3211C139.501 38.8087 133.153 31.7009 133.153 23.7511H131.153ZM162.441 0.918427C153.891 0.918427 146.109 3.41512 140.439 7.50185C134.771 11.5876 131.153 17.3195 131.153 23.7511H133.153C133.153 18.1249 136.315 12.9405 141.609 9.12428C146.902 5.30914 154.264 2.91843 162.441 2.91843V0.918427ZM193.73 23.7511C193.73 17.3195 190.111 11.5876 184.443 7.50185C178.774 3.41512 170.992 0.918427 162.441 0.918427V2.91843C170.619 2.91843 177.981 5.30914 183.274 9.12428C188.568 12.9405 191.73 18.1249 191.73 23.7511H193.73Z" fill="#BDBDBD" mask="url(#path-1-outside-1)"/>
    </g>
    <path d="M282.29 237.772C282.29 257.476 278.249 269.083 271.471 275.504C264.703 281.918 255.076 283.279 243.584 282.163C234.041 281.236 223.313 278.613 212.019 275.852C209.712 275.288 207.382 274.718 205.033 274.156C191.209 270.847 176.774 267.804 162.923 267.804C149.073 267.804 134.354 270.885 120.107 274.243C117.843 274.776 115.591 275.317 113.357 275.853C101.507 278.697 90.1439 281.424 79.9979 282.395C67.9361 283.551 57.7368 282.208 50.5425 275.757C43.3471 269.305 39.0265 257.624 39.0265 237.772C39.0265 158.361 93.2336 94.5849 162.923 94.5849C197.798 94.5849 227.624 108.447 248.738 133.255C269.858 158.068 282.29 193.867 282.29 237.772Z" fill="#1B0A32" fill-opacity="0.9" stroke="#DADADA"/>
    <path d="M282.29 237.772C282.29 257.476 278.249 269.083 271.471 275.504C264.703 281.918 255.076 283.279 243.584 282.163C234.041 281.236 223.313 278.613 212.019 275.852C209.712 275.288 207.382 274.718 205.033 274.156C191.209 270.847 176.774 267.804 162.923 267.804C149.073 267.804 134.354 270.885 120.107 274.243C117.843 274.776 115.591 275.317 113.357 275.853C101.507 278.697 90.1439 281.424 79.9979 282.395C67.9361 283.551 57.7368 282.208 50.5425 275.757C43.3471 269.305 39.0265 257.624 39.0265 237.772C39.0265 158.361 93.2336 94.5849 162.923 94.5849C197.798 94.5849 227.624 108.447 248.738 133.255C269.858 158.068 282.29 193.867 282.29 237.772Z" fill="#2C19A0" fill-opacity="0.4" stroke="#29589F"/>
    <ellipse rx="20.3077" ry="30.5485" transform="matrix(0.999999 0.00162136 -0.00225992 0.999997 201.051 198.274)" fill="#E9E9E9"/>
    <ellipse rx="20.3038" ry="30.5465" transform="matrix(0.999981 -0.00615474 0.00652856 0.999979 123.159 198.645)" fill="#E9E9E9"/>
    <defs>
        <filter id="filter0_d" x="0.631348" y="0.918427" width="321.223" height="330.595" filterUnits="userSpaceOnUse" color-interpolation-filters="sRGB">
            <feFlood flood-opacity="0" result="BackgroundImageFix"/>
            <feColorMatrix in="SourceAlpha" type="matrix" values="0 0 0 0 0 0 0 0 0 0 0 0 0 0 0 0 0 0 127 0"/>
            <feOffset dy="3"/>
            <feGaussianBlur stdDeviation="1"/>
            <feColorMatrix type="matrix" values="0 0 0 0 0 0 0 0 0 0 0 0 0 0 0 0 0 0 0.4 0"/>
            <feBlend mode="normal" in2="BackgroundImageFix" result="effect1_dropShadow"/>
            <feBlend mode="normal" in="SourceGraphic" in2="effect1_dropShadow" result="shape"/>
        </filter>
    </defs>
</svg>
